<?xml version="1.0" encoding="UTF-8" standalone="no"?>
<!-- Created with Inkscape (http://www.inkscape.org/) -->

<svg
   xmlns:dc="http://purl.org/dc/elements/1.1/"
   xmlns:cc="http://creativecommons.org/ns#"
   xmlns:rdf="http://www.w3.org/1999/02/22-rdf-syntax-ns#"
   xmlns:svg="http://www.w3.org/2000/svg"
   xmlns="http://www.w3.org/2000/svg"
   xmlns:xlink="http://www.w3.org/1999/xlink"
   xmlns:sodipodi="http://sodipodi.sourceforge.net/DTD/sodipodi-0.dtd"
   xmlns:inkscape="http://www.inkscape.org/namespaces/inkscape"
   width="210mm"
   height="297mm"
   viewBox="0 0 744.09448819 1052.3622047"
   id="svg2"
   version="1.1"
   inkscape:version="0.91 r13725"
   sodipodi:docname="mantis.svg">
  <defs
     id="defs4">
    <linearGradient
       inkscape:collect="always"
       id="linearGradient6144">
      <stop
         id="stop6148"
         offset="0"
         style="stop-color:#00ffb7;stop-opacity:1" />
      <stop
         id="stop6146"
         offset="1"
         style="stop-color:#008080;stop-opacity:1;" />
    </linearGradient>
    <linearGradient
       inkscape:collect="always"
       xlink:href="#linearGradient6144"
       id="linearGradient6152"
       x1="0"
       y1="1042.3622"
       x2="20"
       y2="1042.3622"
       gradientUnits="userSpaceOnUse" />
  </defs>
  <sodipodi:namedview
     id="base"
     pagecolor="#ffffff"
     bordercolor="#666666"
     borderopacity="1.0"
     inkscape:pageopacity="0.0"
     inkscape:pageshadow="2"
     inkscape:zoom="15.761439"
     inkscape:cx="7.4207939"
     inkscape:cy="1.0315248"
     inkscape:document-units="px"
     inkscape:current-layer="layer1"
     showgrid="false"
     inkscape:window-width="1920"
     inkscape:window-height="1017"
     inkscape:window-x="-8"
     inkscape:window-y="48"
     inkscape:window-maximized="1" />
  <metadata
     id="metadata7">
    <rdf:RDF>
      <cc:Work
         rdf:about="">
        <dc:format>image/svg+xml</dc:format>
        <dc:type
           rdf:resource="http://purl.org/dc/dcmitype/StillImage" />
        <dc:title />
      </cc:Work>
    </rdf:RDF>
  </metadata>
  <g
     inkscape:label="Layer 1"
     inkscape:groupmode="layer"
     id="layer1">
    <path
       style="fill:url(#linearGradient6152);stroke:none;stroke-opacity:1;fill-opacity:1"
       d="M 10.000003,1032.3629 0,1042.3639 l 3.3750008,3.3772 5.6210952,-5.6216 -0.00977,-0.01 2.666017,-2.6663 2.666016,2.6663 -2.666016,2.6662 -1.324219,-1.3243 -2.9355484,2.9358 4.6308614,0 2.47461,-2.4748 0.328125,0.3281 -2.587892,2.5862 0,0.023 -5.306642,0 -2.2226567,2.223 5.2910169,5.2895 L 20,1042.3632 9.9999982,1032.3622 Z m 6.19336,8.2488 c 0.357268,0 0.638884,0.085 0.841797,0.2521 0.202914,0.1652 0.302735,0.386 0.302735,0.666 0,0.2187 -0.0659,0.4365 -0.201172,0.6505 -0.135276,0.214 -0.388625,0.4833 -0.759766,0.8106 l -0.833984,0.7403 0,0.017 1.957031,0 0,0.3654 -2.5,0 0,-0.338 1.001953,-0.9142 c 0.305238,-0.28 0.506394,-0.4799 0.603516,-0.5996 0.09712,-0.1195 0.170189,-0.2363 0.21875,-0.3496 0.04856,-0.1134 0.07226,-0.2348 0.07226,-0.3653 0,-0.1841 -0.06241,-0.3286 -0.185546,-0.4356 -0.123136,-0.1086 -0.293197,-0.164 -0.511719,-0.164 -0.157822,0 -0.307006,0.023 -0.449219,0.07 -0.140478,0.047 -0.297273,0.1333 -0.470703,0.2578 l -0.230469,-0.2676 c 0.35033,-0.2644 0.731767,-0.3966 1.144531,-0.3966 z"
       id="rect4136"
       inkscape:connector-curvature="0" />
    <text
       xml:space="preserve"
       style="font-style:normal;font-weight:normal;font-size:1.25px;line-height:125%;font-family:sans-serif;letter-spacing:0px;word-spacing:0px;fill:#000000;fill-opacity:1;stroke:none;stroke-width:1px;stroke-linecap:butt;stroke-linejoin:miter;stroke-opacity:1"
       x="15.861496"
       y="1033.2332"
       id="text4140"
       sodipodi:linespacing="125%"><tspan
         sodipodi:role="line"
         id="tspan4142"
         x="15.861496"
         y="1033.2332"></tspan></text>
  </g>
</svg>
